<svg width="100" height="100" viewBox="0 0 100 100" fill="none" xmlns="http://www.w3.org/2000/svg">
<path d="M49.9689 100C77.2753 100 100 77.3237 100 49.9994C100 22.6763 77.2145 0 49.9068 0C22.6625 0 0 22.6763 0 49.9994C0 77.3237 22.7247 100 49.9689 100Z" fill="black"/>
<path d="M49.9341 92.6823C26.3454 92.6823 7.5 73.7601 7.5 50.0905C7.5 26.4221 26.2802 7.5 49.8689 7.5C73.5242 7.5 92.5 26.4221 92.5 50.0905C92.5 73.7601 73.5894 92.6823 49.9341 92.6823Z" fill="url(#paint0_linear_359_615)"/>
<path d="M29.5072 73.2152C26.8454 74.4663 25.5951 75.0538 24.9242 74.3826C24.247 73.705 24.8532 72.4348 26.1429 69.7321L26.1441 69.7296L38.1849 44.2363C38.7911 42.9661 39.557 41.7962 40.6172 40.7367C41.6761 39.6772 42.8453 38.9095 44.1146 38.303L69.5924 26.2548L69.5949 26.2536C72.296 24.9631 73.5654 24.3566 74.2426 25.0342C74.9134 25.7054 74.3263 26.9565 73.0759 29.6199L73.0379 29.7024L60.9819 55.1805C60.3897 56.4646 59.6098 57.6218 58.5509 58.6813C57.492 59.7409 56.3355 60.5225 55.0522 61.1138L29.5896 73.1771L29.5072 73.2152Z" fill="black"/>
<defs>
<linearGradient id="paint0_linear_359_615" x1="49.9666" y1="8.11788" x2="49.9666" y2="118.383" gradientUnits="userSpaceOnUse">
<stop stop-color="#5197E8"/>
<stop offset="1" stop-color="white" stop-opacity="0.86"/>
</linearGradient>
</defs>
</svg>
