<svg width="100" height="100" viewBox="0 0 100 100" fill="none" xmlns="http://www.w3.org/2000/svg">
<path d="M50.4088 79.7945C50.4088 79.7945 27.0227 60.1669 21.2516 41.2166C19.9697 37.8745 19.2685 34.251 19.2685 30.4662C19.2685 13.64 33.1375 0 50.2461 0C67.3548 0 81.2252 13.64 81.2252 30.4662C81.2252 32.5214 81.0176 34.5269 80.625 36.4676C77.8901 56.731 50.4088 79.7945 50.4088 79.7945ZM55.173 85.9945L78.8186 100H100L88.4241 73.7103L60.0985 78.6234L55.173 85.9945ZM33.9902 82.309L4.92546 87.96L0 100H66.0099L33.9902 82.309ZM12.8073 70.7614L7.63502 81.5724L26.1083 78.1324L12.8073 70.7614ZM17.981 66.0938L39.6547 76.6579L29.8024 66.0938H17.981ZM66.0099 71.2538L85.4691 67.5683L83.2518 66.0938L70.9367 66.0938L66.0099 71.2538ZM50.2461 50.6138C61.8361 50.6138 71.2312 41.3738 71.2312 29.9752C71.2312 18.5765 61.8361 9.33655 50.2461 9.33655C38.6562 9.33655 29.261 18.5765 29.261 29.9752C29.261 41.3738 38.6562 50.6138 50.2461 50.6138Z" fill="black"/>
</svg>
