<svg width="100" height="100" viewBox="0 0 100 100" fill="none" xmlns="http://www.w3.org/2000/svg">
<path fill-rule="evenodd" clip-rule="evenodd" d="M100.005 50C100.005 77.4595 77.4595 100 50.0001 100C22.4841 100 0 77.4595 0 50C0 22.5405 22.4796 0 49.9954 0C77.4548 0 100.005 22.5405 100.005 50ZM7 50C7 73.7468 26.2943 93 50.0238 93C73.7573 93 93 73.7468 93 50C93 26.2533 73.7532 7 50.0194 7C26.2902 7 7 26.2533 7 50Z" fill="black"/>
<path d="M73.221 55.8483C76.5081 55.8483 79.1912 53.2262 79.1912 49.878C79.1912 46.5298 76.5081 43.9031 73.221 43.9031C69.8682 43.9031 67.1851 46.5298 67.1851 49.878C67.1851 53.2262 69.8682 55.8483 73.221 55.8483Z" fill="black"/>
<path d="M49.9956 55.8483C53.3484 55.8483 55.9706 53.2262 55.9706 49.878C55.9706 46.5298 53.3484 43.9031 49.9956 43.9031C46.6476 43.9031 44.0254 46.5298 44.0254 49.878C44.0254 53.2262 46.6476 55.8483 49.9956 55.8483Z" fill="black"/>
<path d="M26.7749 55.8483C30.1231 55.8483 32.8109 53.2262 32.8109 49.878C32.8109 46.5298 30.1186 43.9031 26.7749 43.9031C23.4879 43.9031 20.8047 46.5298 20.8047 49.878C20.8047 53.2262 23.4879 55.8483 26.7749 55.8483Z" fill="black"/>
</svg>
