<svg width="1034" height="1037" viewBox="0 0 1034 1037" fill="none" xmlns="http://www.w3.org/2000/svg">
<path fill-rule="evenodd" clip-rule="evenodd" d="M517.018 5C695.416 5 840.036 149.62 840.036 328.018C840.036 349.794 837.882 371.066 833.774 391.634C805.264 606.479 518.716 851 518.716 851C518.716 851 274.861 642.91 214.682 441.992C201.314 406.549 194 368.138 194 328.018C194 149.62 338.62 5 517.018 5Z" fill="#2C302E"/>
<path d="M833.774 391.634L828.871 390.655L828.839 390.815L828.817 390.976L833.774 391.634ZM518.716 851L515.47 854.803L518.716 857.573L521.961 854.803L518.716 851ZM214.682 441.992L219.472 440.557L219.422 440.39L219.36 440.227L214.682 441.992ZM845.036 328.018C845.036 146.859 698.178 0 517.018 0V10C692.655 10 835.036 152.382 835.036 328.018H845.036ZM838.677 392.613C842.849 371.725 845.036 350.124 845.036 328.018H835.036C835.036 349.463 832.914 370.408 828.871 390.655L838.677 392.613ZM518.716 851C521.961 854.803 521.963 854.802 521.966 854.799C521.968 854.797 521.972 854.794 521.977 854.79C521.987 854.782 522.001 854.77 522.019 854.754C522.056 854.722 522.11 854.676 522.181 854.615C522.322 854.494 522.532 854.313 522.807 854.075C523.358 853.599 524.173 852.893 525.234 851.964C527.356 850.106 530.466 847.358 534.43 843.789C542.357 836.651 553.702 826.222 567.401 813.039C594.794 786.678 631.622 749.28 669.354 705.132C744.614 617.077 824.268 501.273 838.73 392.292L828.817 390.976C814.769 496.84 736.894 610.718 661.753 698.635C624.284 742.474 587.693 779.633 560.467 805.834C546.857 818.932 535.593 829.285 527.738 836.358C523.811 839.894 520.736 842.611 518.647 844.439C517.603 845.354 516.805 846.046 516.269 846.509C516.002 846.74 515.8 846.913 515.666 847.028C515.599 847.086 515.549 847.129 515.516 847.157C515.5 847.171 515.488 847.181 515.48 847.188C515.476 847.191 515.474 847.193 515.472 847.195C515.47 847.196 515.47 847.197 518.716 851ZM209.892 443.426C240.308 544.976 316.936 647.905 385.527 725.16C419.884 763.857 452.349 796.249 476.226 818.969C488.167 830.33 497.964 839.277 504.783 845.389C508.192 848.445 510.857 850.793 512.673 852.379C513.581 853.173 514.277 853.776 514.747 854.182C514.982 854.385 515.161 854.539 515.282 854.643C515.343 854.695 515.389 854.734 515.42 854.761C515.436 854.774 515.448 854.785 515.456 854.792C515.46 854.795 515.464 854.798 515.466 854.8C515.468 854.802 515.47 854.803 518.716 851C521.961 847.197 521.961 847.196 521.96 847.195C521.958 847.194 521.956 847.192 521.953 847.189C521.946 847.184 521.936 847.175 521.922 847.163C521.894 847.139 521.852 847.103 521.795 847.054C521.681 846.956 521.509 846.809 521.281 846.612C520.825 846.218 520.145 845.628 519.252 844.849C517.466 843.289 514.833 840.969 511.457 837.943C504.705 831.89 494.981 823.011 483.12 811.724C459.394 789.149 427.133 756.961 393.005 718.521C324.623 641.501 249.234 539.926 219.472 440.557L209.892 443.426ZM189 328.018C189 368.75 196.426 407.758 210.003 443.756L219.36 440.227C206.202 405.34 199 367.526 199 328.018H189ZM517.018 0C335.859 0 189 146.859 189 328.018H199C199 152.382 341.382 10 517.018 10V0Z" fill="#2C302E"/>
<path d="M537.5 106.5C419.9 93.3001 346.167 176.333 324 219.5C414.731 205.451 488.186 204.715 546 213.5C601.941 222.001 634 241.121 672 257.5C701 270 736 304 736 304C730 247.5 684.5 123 537.5 106.5Z" fill="#5BC0EB"/>
<path d="M735.5 307.5C728.7 288.7 689.333 266.667 670.5 258C748 377 635 478 561.5 508.5L582 535C730 486 744 331 735.5 307.5Z" fill="#285F00"/>
<path d="M669.501 257.5C665.501 253.1 637.501 242.333 624.001 237.5C701.501 314.5 620.501 381 568.501 412C526.901 436.8 546.834 487.333 562.001 509.5C599.834 490.5 672.501 446.5 692.001 376C710.118 310.5 674.501 263 669.501 257.5Z" fill="#398400"/>
<path d="M607 384C670.2 334.8 659.666 288.5 646.5 271.5C648.999 296.5 641.199 317.3 627.999 330.5C611.499 347 571.399 365.733 524.5 397C472 432 513.5 494 519.5 499.5C524.3 503.9 541.667 529.167 550 541.5L581.5 533.5C568 517.5 534.232 480.428 544 446.5C553.5 413.5 567.5 414.75 607 384Z" fill="#77B300"/>
<path d="M568.5 279C563.7 229.4 438.5 248.667 376.5 264.5C390.667 266.167 422.643 275.64 424.5 297C426.5 320 403 341.5 371.5 391.5C346.3 431.5 357 469.167 365.5 483C397.167 517.167 423 523.5 423 523.5C423 523.5 365.5 444 426.5 383.5C467.335 343 573.436 330 568.5 279Z" fill="#398400"/>
<path d="M363 479.5C363 479.5 314.5 442 302 370.5C333.2 370.5 358.667 389.833 367.5 399.5C345 435 363 479.5 363 479.5Z" fill="#285F00"/>
<path d="M372.501 264.5L301.001 283C294.601 295.4 298.334 346.5 301.001 370.5C351.001 375.5 367.001 399.5 367.001 399.5C399.001 344 431.001 312.75 424.501 296.5C416.501 276.5 409.305 272.194 372.501 264.5Z" fill="#77B300"/>
<path d="M301 370C314.667 371 345.2 376.9 366 398.5" stroke="black" stroke-width="5" stroke-linecap="round"/>
<path d="M359.5 267.5C390.5 259 446.5 282 415.5 326.5C360.911 404.862 341 426.5 367 487" stroke="black" stroke-width="5" stroke-linecap="round"/>
<path d="M661 252.5C700.5 275.5 746.5 419 563 508" stroke="white" stroke-width="5" stroke-linecap="round"/>
<path d="M639 255.5C653.833 280.5 691.5 334.5 569.5 411C510.748 447.84 566.333 520.833 582.5 534" stroke="white" stroke-width="5" stroke-linecap="round"/>
<path d="M644.998 270.5C628.998 193.3 424.665 204.333 324.498 219.5C324.498 219.5 297.995 283.501 297.998 283.5C449.5 240.5 571.873 229.5 568.498 283.5C566.498 315.5 539.535 323.142 458.498 360.5C388 393 372.383 485.22 448.5 547.5C497.998 588 516.5 634 516.5 634C611 544 499.725 515.5 497.998 446C495.998 365.5 664.998 367 644.998 270.5Z" fill="#D9D9D9" stroke="black" stroke-width="5" stroke-linecap="round"/>
<path fill-rule="evenodd" clip-rule="evenodd" d="M302.003 325.679C302.001 325.286 302 324.893 302 324.5C302 324.006 302.002 323.513 302.005 323.02C302.144 302.803 305.142 282.558 311.037 262.897C320.848 230.174 338.251 200.516 361.54 176.183C363.953 173.663 366.427 171.202 368.959 168.802C378.784 159.491 389.528 151.075 401.08 143.701L401.066 143.678C434.392 122.359 474.003 110 516.5 110C634.965 110 731 206.035 731 324.5C731 433.134 650.244 522.906 545.489 537.058C547.197 540.163 548.727 543.309 550.02 546.514C658.109 530.332 741 437.096 741 324.5C741 200.512 640.488 100 516.5 100C456.672 100 402.31 123.403 362.069 161.554C359.423 164.061 356.842 166.63 354.326 169.259C316.052 209.23 292.411 263.326 292.005 322.941C291.999 323.875 291.998 324.809 292.003 325.744C292.509 419.026 349.907 498.84 431.266 532.254C426.114 526.623 421.594 520.831 417.685 514.933C374.809 492.64 340.411 456.291 320.597 411.993L320.646 411.971C308.421 384.6 302.166 355.199 302.003 325.679Z" fill="black"/>
<path d="M301 370C314.667 371 345.2 376.9 366 398.5" stroke="black" stroke-width="5" stroke-linecap="round"/>
<path d="M359.5 267.5C390.5 259 446.5 282 415.5 326.5C360.911 404.862 341 426.5 367 487" stroke="black" stroke-width="5" stroke-linecap="round"/>
<path fill-rule="evenodd" clip-rule="evenodd" d="M302.003 325.679C302.001 325.286 302 324.893 302 324.5C302 324.006 302.002 323.513 302.005 323.02C302.144 302.803 305.142 282.558 311.037 262.897C320.848 230.174 338.251 200.516 361.54 176.183C363.953 173.663 366.427 171.202 368.959 168.802C378.784 159.491 389.528 151.075 401.08 143.701L401.066 143.678C434.392 122.359 474.003 110 516.5 110C634.965 110 731 206.035 731 324.5C731 433.134 650.244 522.906 545.489 537.058C547.197 540.163 548.727 543.309 550.02 546.514C658.109 530.332 741 437.096 741 324.5C741 200.512 640.488 100 516.5 100C456.672 100 402.31 123.403 362.069 161.554C359.423 164.061 356.842 166.63 354.326 169.259C316.052 209.23 292.411 263.326 292.005 322.941C291.999 323.875 291.998 324.809 292.003 325.744C292.509 419.026 349.907 498.84 431.266 532.254C426.114 526.623 421.594 520.831 417.685 514.933C374.809 492.64 340.411 456.291 320.597 411.993L320.646 411.971C308.421 384.6 302.166 355.199 302.003 325.679Z" fill="black"/>
<path d="M644.998 270.5C628.998 193.3 424.665 204.333 324.498 219.5C324.498 219.5 297.995 283.501 297.998 283.5C449.5 240.5 571.873 229.5 568.498 283.5C566.498 315.5 539.535 323.142 458.498 360.5C388 393 372.383 485.22 448.5 547.5C497.998 588 516.5 634 516.5 634C611 544 499.725 515.5 497.998 446C495.998 365.5 664.998 367 644.998 270.5Z" fill="#2C302E" stroke="white" stroke-width="5" stroke-linecap="round"/>
<path d="M301 370C314.667 371 345.2 376.9 366 398.5" stroke="white" stroke-width="5" stroke-linecap="round"/>
<path d="M359.5 267.5C390.5 259 446.5 282 415.5 326.5C360.911 404.862 341 426.5 367 487" stroke="white" stroke-width="5" stroke-linecap="round"/>
<path fill-rule="evenodd" clip-rule="evenodd" d="M302.003 325.679C302.001 325.286 302 324.893 302 324.5C302 324.006 302.002 323.513 302.005 323.02C302.144 302.803 305.142 282.558 311.037 262.897C320.848 230.174 338.251 200.516 361.54 176.183C363.953 173.663 366.427 171.202 368.959 168.802C378.784 159.491 389.528 151.075 401.08 143.701L401.066 143.678C434.392 122.359 474.003 110 516.5 110C634.965 110 731 206.035 731 324.5C731 433.134 650.244 522.906 545.489 537.058C547.197 540.163 548.727 543.309 550.02 546.514C658.109 530.332 741 437.096 741 324.5C741 200.512 640.488 100 516.5 100C456.672 100 402.31 123.403 362.069 161.554C359.423 164.061 356.842 166.63 354.326 169.259C316.052 209.23 292.411 263.326 292.005 322.941C291.999 323.875 291.998 324.809 292.003 325.744C292.509 419.026 349.907 498.84 431.266 532.254C426.114 526.623 421.594 520.831 417.685 514.933C374.809 492.64 340.411 456.291 320.597 411.993L320.646 411.971C308.421 384.6 302.166 355.199 302.003 325.679Z" fill="white"/>
<path d="M484 519.5L504 546" stroke="white" stroke-width="5" stroke-linecap="round"/>
<path d="M462.5 473.5C458.666 465.5 453.3 444.2 462.5 423" stroke="white" stroke-width="5" stroke-linecap="round"/>
<path d="M481.5 395C485.667 390.5 496.7 379.7 507.5 372.5" stroke="white" stroke-width="5" stroke-linecap="round"/>
<path d="M541 354L570.5 337" stroke="white" stroke-width="5" stroke-linecap="round"/>
<path d="M600.5 315.5C602.833 311.5 607.9 300.1 609.5 286.5" stroke="white" stroke-width="5" stroke-linecap="round"/>
<path d="M607.175 267.977L594.826 251.523" stroke="white" stroke-width="5" stroke-linecap="round"/>
<path d="M555.5 237C550.333 235.167 534.4 231.5 512 231.5" stroke="white" stroke-width="5" stroke-linecap="round"/>
<path d="M435.5 233.5L391.5 235.5" stroke="white" stroke-width="5" stroke-linecap="round"/>
<path d="M592 224C639 240.5 735.5 281.4 735.5 315" stroke="white" stroke-width="5" stroke-linecap="round"/>
<path d="M681.902 1035.1L352.099 849.831L52.7389 909.014L2 1035.1H681.902Z" fill="#2C302E" stroke="#2C302E" stroke-width="3" stroke-linejoin="round"/>
<path d="M570.276 888.43L621.015 811.234L912.764 759.77L1032 1035.1H813.823L570.276 888.43Z" fill="#2C302E"/>
<path d="M270.916 806.088L133.921 728.892L80.645 842.112L270.916 806.088Z" fill="#2C302E"/>
<path d="M570.276 888.43L621.015 811.234L912.764 759.77L1032 1035.1H813.823L570.276 888.43Z" stroke="#2C302E" stroke-width="3" stroke-linejoin="round"/>
<path d="M270.916 806.088L133.921 728.892L80.645 842.112L270.916 806.088Z" stroke="#2C302E" stroke-width="3" stroke-linejoin="round"/>
<path d="M308.971 680H187.198L410.449 790.647L308.971 680Z" fill="#2C302E" stroke="#2C302E" stroke-width="3" stroke-linejoin="round"/>
<path d="M732.641 680L681.902 734.037L882.321 695.439L859.488 680H732.641Z" fill="#2C302E" stroke="#2C302E" stroke-width="3" stroke-linejoin="round"/>
</svg>
