<svg width="657" height="858" viewBox="0 0 657 858" fill="none" xmlns="http://www.w3.org/2000/svg">
<path fill-rule="evenodd" clip-rule="evenodd" d="M328.018 5C506.416 5 651.036 149.62 651.036 328.018C651.036 349.794 648.882 371.066 644.774 391.634C616.264 606.479 329.716 851 329.716 851C329.716 851 85.861 642.91 25.682 441.992C12.314 406.549 5 368.138 5 328.018C5 149.62 149.62 5 328.018 5Z" fill="#2C302E"/>
<path d="M644.774 391.634L639.871 390.655L639.839 390.815L639.817 390.976L644.774 391.634ZM329.716 851L326.47 854.803L329.716 857.573L332.961 854.803L329.716 851ZM25.682 441.992L30.472 440.557L30.422 440.39L30.36 440.227L25.682 441.992ZM656.036 328.018C656.036 146.859 509.178 0 328.018 0V10C503.655 10 646.036 152.382 646.036 328.018H656.036ZM649.677 392.613C653.849 371.725 656.036 350.124 656.036 328.018H646.036C646.036 349.463 643.914 370.408 639.871 390.655L649.677 392.613ZM329.716 851C332.961 854.803 332.963 854.802 332.966 854.799C332.968 854.797 332.972 854.794 332.977 854.79C332.987 854.782 333.001 854.77 333.019 854.754C333.056 854.722 333.11 854.676 333.181 854.615C333.322 854.494 333.532 854.313 333.807 854.075C334.358 853.599 335.173 852.893 336.234 851.964C338.356 850.106 341.466 847.358 345.43 843.789C353.357 836.651 364.702 826.222 378.401 813.039C405.794 786.678 442.622 749.28 480.354 705.132C555.614 617.077 635.268 501.273 649.73 392.292L639.817 390.976C625.769 496.84 547.894 610.718 472.753 698.635C435.284 742.474 398.693 779.633 371.467 805.834C357.857 818.932 346.593 829.285 338.738 836.358C334.811 839.894 331.736 842.611 329.647 844.439C328.603 845.354 327.805 846.046 327.269 846.509C327.002 846.74 326.8 846.913 326.666 847.028C326.599 847.086 326.549 847.129 326.516 847.157C326.5 847.171 326.488 847.181 326.48 847.188C326.476 847.191 326.474 847.193 326.472 847.195C326.47 847.196 326.47 847.197 329.716 851ZM20.892 443.426C51.308 544.976 127.936 647.905 196.527 725.16C230.884 763.857 263.349 796.249 287.226 818.969C299.167 830.33 308.964 839.277 315.783 845.389C319.192 848.445 321.857 850.793 323.673 852.379C324.581 853.173 325.277 853.776 325.747 854.182C325.982 854.385 326.161 854.539 326.282 854.643C326.343 854.695 326.389 854.734 326.42 854.761C326.436 854.774 326.448 854.785 326.456 854.792C326.46 854.795 326.464 854.798 326.466 854.8C326.468 854.802 326.47 854.803 329.716 851C332.961 847.197 332.961 847.196 332.96 847.195C332.958 847.194 332.956 847.192 332.953 847.189C332.946 847.184 332.936 847.175 332.922 847.163C332.894 847.139 332.852 847.103 332.795 847.054C332.681 846.956 332.509 846.809 332.281 846.612C331.825 846.218 331.145 845.628 330.252 844.849C328.466 843.289 325.833 840.969 322.457 837.943C315.705 831.89 305.981 823.011 294.12 811.724C270.394 789.149 238.133 756.961 204.005 718.521C135.623 641.501 60.234 539.926 30.472 440.557L20.892 443.426ZM0 328.018C0 368.75 7.42601 407.758 21.003 443.756L30.36 440.227C17.202 405.34 10 367.526 10 328.018H0ZM328.018 0C146.859 0 0 146.859 0 328.018H10C10 152.382 152.382 10 328.018 10V0Z" fill="#2C302E"/>
<path d="M348.5 106.5C230.9 93.3 157.167 176.333 135 219.5C225.731 205.451 299.186 204.715 357 213.5C412.941 222.001 445 241.121 483 257.5C512 270 547 304 547 304C541 247.5 495.5 123 348.5 106.5Z" fill="#5BC0EB"/>
<path d="M546.5 307.5C539.7 288.7 500.333 266.667 481.5 258C559 377 446 478 372.5 508.5L393 535C541 486 555 331 546.5 307.5Z" fill="#285F00"/>
<path d="M480.501 257.5C476.501 253.1 448.501 242.333 435.001 237.5C512.501 314.5 431.501 381 379.501 412C337.901 436.8 357.834 487.333 373.001 509.5C410.834 490.5 483.501 446.5 503.001 376C521.118 310.5 485.501 263 480.501 257.5Z" fill="#398400"/>
<path d="M418 384C481.2 334.8 470.666 288.5 457.5 271.5C459.999 296.5 452.199 317.3 438.999 330.5C422.499 347 382.399 365.733 335.5 397C283 432 324.5 494 330.5 499.5C335.3 503.9 352.667 529.167 361 541.5L392.5 533.5C379 517.5 345.232 480.428 355 446.5C364.5 413.5 378.5 414.75 418 384Z" fill="#77B300"/>
<path d="M379.5 279C374.7 229.4 249.5 248.667 187.5 264.5C201.667 266.167 233.643 275.64 235.5 297C237.5 320 214 341.5 182.5 391.5C157.3 431.5 168 469.167 176.5 483C208.167 517.167 234 523.5 234 523.5C234 523.5 176.5 444 237.5 383.5C278.335 343 384.436 330 379.5 279Z" fill="#398400"/>
<path d="M174 479.5C174 479.5 125.5 442 113 370.5C144.2 370.5 169.667 389.833 178.5 399.5C156 435 174 479.5 174 479.5Z" fill="#285F00"/>
<path d="M183.501 264.5L112.001 283C105.601 295.4 109.334 346.5 112.001 370.5C162.001 375.5 178.001 399.5 178.001 399.5C210.001 344 242.001 312.75 235.501 296.5C227.501 276.5 220.305 272.194 183.501 264.5Z" fill="#77B300"/>
<path d="M112 370C125.667 371 156.2 376.9 177 398.5" stroke="black" stroke-width="5" stroke-linecap="round"/>
<path d="M170.5 267.5C201.5 259 257.5 282 226.5 326.5C171.911 404.862 152 426.5 178 487" stroke="black" stroke-width="5" stroke-linecap="round"/>
<path d="M472 252.5C511.5 275.5 557.5 419 374 508" stroke="white" stroke-width="5" stroke-linecap="round"/>
<path d="M450 255.5C464.833 280.5 502.5 334.5 380.5 411C321.748 447.84 377.333 520.833 393.5 534" stroke="white" stroke-width="5" stroke-linecap="round"/>
<path d="M455.998 270.5C439.998 193.3 235.665 204.333 135.498 219.5C135.498 219.5 108.995 283.501 108.998 283.5C260.5 240.5 382.873 229.5 379.498 283.5C377.498 315.5 350.535 323.142 269.498 360.5C199 393 183.383 485.22 259.5 547.5C308.998 588 327.5 634 327.5 634C422 544 310.725 515.5 308.998 446C306.998 365.5 475.998 367 455.998 270.5Z" fill="#D9D9D9" stroke="black" stroke-width="5" stroke-linecap="round"/>
<path fill-rule="evenodd" clip-rule="evenodd" d="M113.003 325.679C113.001 325.286 113 324.893 113 324.5C113 324.006 113.002 323.513 113.005 323.02C113.144 302.803 116.142 282.558 122.037 262.897C131.848 230.174 149.251 200.516 172.54 176.183C174.953 173.663 177.427 171.202 179.959 168.802C189.784 159.491 200.528 151.075 212.08 143.701L212.066 143.678C245.392 122.359 285.003 110 327.5 110C445.965 110 542 206.035 542 324.5C542 433.134 461.244 522.906 356.489 537.058C358.197 540.163 359.727 543.309 361.02 546.514C469.109 530.332 552 437.096 552 324.5C552 200.512 451.488 100 327.5 100C267.672 100 213.31 123.403 173.069 161.554C170.423 164.061 167.842 166.63 165.326 169.259C127.052 209.23 103.411 263.326 103.005 322.941C102.999 323.875 102.998 324.809 103.003 325.744C103.509 419.026 160.907 498.84 242.266 532.254C237.114 526.623 232.594 520.831 228.685 514.933C185.809 492.64 151.411 456.291 131.597 411.993L131.646 411.971C119.421 384.6 113.166 355.199 113.003 325.679Z" fill="black"/>
<path d="M112 370C125.667 371 156.2 376.9 177 398.5" stroke="black" stroke-width="5" stroke-linecap="round"/>
<path d="M170.5 267.5C201.5 259 257.5 282 226.5 326.5C171.911 404.862 152 426.5 178 487" stroke="black" stroke-width="5" stroke-linecap="round"/>
<path fill-rule="evenodd" clip-rule="evenodd" d="M113.003 325.679C113.001 325.286 113 324.893 113 324.5C113 324.006 113.002 323.513 113.005 323.02C113.144 302.803 116.142 282.558 122.037 262.897C131.848 230.174 149.251 200.516 172.54 176.183C174.953 173.663 177.427 171.202 179.959 168.802C189.784 159.491 200.528 151.075 212.08 143.701L212.066 143.678C245.392 122.359 285.003 110 327.5 110C445.965 110 542 206.035 542 324.5C542 433.134 461.244 522.906 356.489 537.058C358.197 540.163 359.727 543.309 361.02 546.514C469.109 530.332 552 437.096 552 324.5C552 200.512 451.488 100 327.5 100C267.672 100 213.31 123.403 173.069 161.554C170.423 164.061 167.842 166.63 165.326 169.259C127.052 209.23 103.411 263.326 103.005 322.941C102.999 323.875 102.998 324.809 103.003 325.744C103.509 419.026 160.907 498.84 242.266 532.254C237.114 526.623 232.594 520.831 228.685 514.933C185.809 492.64 151.411 456.291 131.597 411.993L131.646 411.971C119.421 384.6 113.166 355.199 113.003 325.679Z" fill="black"/>
<path d="M455.998 270.5C439.998 193.3 235.665 204.333 135.498 219.5C135.498 219.5 108.995 283.501 108.998 283.5C260.5 240.5 382.873 229.5 379.498 283.5C377.498 315.5 350.535 323.142 269.498 360.5C199 393 183.383 485.22 259.5 547.5C308.998 588 327.5 634 327.5 634C422 544 310.725 515.5 308.998 446C306.998 365.5 475.998 367 455.998 270.5Z" fill="#2C302E" stroke="white" stroke-width="5" stroke-linecap="round"/>
<path d="M112 370C125.667 371 156.2 376.9 177 398.5" stroke="white" stroke-width="5" stroke-linecap="round"/>
<path d="M170.5 267.5C201.5 259 257.5 282 226.5 326.5C171.911 404.862 152 426.5 178 487" stroke="white" stroke-width="5" stroke-linecap="round"/>
<path fill-rule="evenodd" clip-rule="evenodd" d="M113.003 325.679C113.001 325.286 113 324.893 113 324.5C113 324.006 113.002 323.513 113.005 323.02C113.144 302.803 116.142 282.558 122.037 262.897C131.848 230.174 149.251 200.516 172.54 176.183C174.953 173.663 177.427 171.202 179.959 168.802C189.784 159.491 200.528 151.075 212.08 143.701L212.066 143.678C245.392 122.359 285.003 110 327.5 110C445.965 110 542 206.035 542 324.5C542 433.134 461.244 522.906 356.489 537.058C358.197 540.163 359.727 543.309 361.02 546.514C469.109 530.332 552 437.096 552 324.5C552 200.512 451.488 100 327.5 100C267.672 100 213.31 123.403 173.069 161.554C170.423 164.061 167.842 166.63 165.326 169.259C127.052 209.23 103.411 263.326 103.005 322.941C102.999 323.875 102.998 324.809 103.003 325.744C103.509 419.026 160.907 498.84 242.266 532.254C237.114 526.623 232.594 520.831 228.685 514.933C185.809 492.64 151.411 456.291 131.597 411.993L131.646 411.971C119.421 384.6 113.166 355.199 113.003 325.679Z" fill="white"/>
<path d="M295 519.5L315 546" stroke="white" stroke-width="5" stroke-linecap="round"/>
<path d="M273.5 473.5C269.666 465.5 264.3 444.2 273.5 423" stroke="white" stroke-width="5" stroke-linecap="round"/>
<path d="M292.5 395C296.667 390.5 307.7 379.7 318.5 372.5" stroke="white" stroke-width="5" stroke-linecap="round"/>
<path d="M352 354L381.5 337" stroke="white" stroke-width="5" stroke-linecap="round"/>
<path d="M411.5 315.5C413.833 311.5 418.9 300.1 420.5 286.5" stroke="white" stroke-width="5" stroke-linecap="round"/>
<path d="M418.175 267.977L405.826 251.523" stroke="white" stroke-width="5" stroke-linecap="round"/>
<path d="M366.5 237C361.333 235.167 345.4 231.5 323 231.5" stroke="white" stroke-width="5" stroke-linecap="round"/>
<path d="M246.5 233.5L202.5 235.5" stroke="white" stroke-width="5" stroke-linecap="round"/>
<path d="M403 224C450 240.5 546.5 281.4 546.5 315" stroke="white" stroke-width="5" stroke-linecap="round"/>
</svg>
