<svg width="80" height="100" viewBox="0 0 80 100" fill="none" xmlns="http://www.w3.org/2000/svg">
<path d="M39.9981 0C18.4449 0 0.96875 16.9264 0.96875 37.8081C0.96875 38.2143 1.1626 47.9303 4.51775 54.8594C14.1305 76.3376 39.9638 100.121 39.9981 99.9996C40.042 100.081 65.7658 76.4283 75.4256 54.9876C78.2935 49.9045 79.0307 38.6359 79.0307 37.8048C79.0339 16.9264 61.5545 0 39.9981 0ZM40.0045 49.9984C33.9594 49.9984 29.0702 45.106 29.0702 39.0672C29.0702 33.0252 33.9594 28.1296 40.0045 28.1296C46.0465 28.1296 50.9389 33.0252 50.9389 39.0672C50.9389 45.106 46.0465 49.9984 40.0045 49.9984Z" fill="#589FF0"/>
<path d="M40.0045 21.8845C30.5167 21.8845 22.8218 29.5762 22.8218 39.0672C22.8218 48.555 30.5163 56.2467 40.0045 56.2467C49.4927 56.2467 57.1872 48.555 57.1872 39.0672C57.1872 29.5758 49.4923 21.8845 40.0045 21.8845ZM40.0045 49.9984C33.9593 49.9984 29.0701 45.106 29.0701 39.0672C29.0701 33.0252 33.9593 28.1296 40.0045 28.1296C46.0465 28.1296 50.9389 33.0252 50.9389 39.0672C50.9389 45.106 46.0465 49.9984 40.0045 49.9984Z" fill="#358EF5"/>
</svg>
