<svg width="100" height="100" viewBox="0 0 100 100" fill="none" xmlns="http://www.w3.org/2000/svg">
<path fill-rule="evenodd" clip-rule="evenodd" d="M100 50C100 77.4595 77.4559 100 49.9978 100C22.4831 100 0 77.4595 0 50C0 22.5405 22.4785 0 49.9931 0C77.4513 0 100 22.5405 100 50ZM7 50.5C7 74.2467 26.2943 93.5 50.0238 93.5C73.7573 93.5 93 74.2467 93 50.5C93 26.7533 73.7531 7.5 50.0195 7.5C26.2901 7.5 7 26.7533 7 50.5Z" fill="black"/>
<path d="M49.9985 57.8267C59.8404 57.8358 67.3398 49.4363 67.3398 38.5353C67.3398 28.2901 59.6575 19.6373 49.9985 19.6373C40.344 19.6373 32.596 28.2901 32.6615 38.5353C32.6662 49.4363 40.1564 57.8174 49.9985 57.8267ZM84.4937 82.885L84.4798 82.6561C81.021 75.6535 67.9852 66.7279 49.9985 66.7279C32.1337 66.7279 19.1023 75.5925 15.5215 82.4732L15.5078 82.885C24.3982 92.1844 36.6647 98.2196 50.0594 98.2196C63.5805 98.2196 75.1763 92.4284 84.4937 82.885Z" fill="black"/>
</svg>
