<svg width="100" height="100" viewBox="0 0 100 100" fill="none" xmlns="http://www.w3.org/2000/svg">
<path d="M0 38.8689C0 60.3058 17.6509 77.7958 39.279 77.7958C48.7636 77.7958 57.4379 74.4677 64.2439 68.8697L94.625 99.0495C95.1039 99.582 95.9223 100 96.8086 100C98.8529 100 100 98.478 100 96.7648C100 96.0068 99.6951 95.2629 99.109 94.61L68.7373 64.5022C74.7975 57.6798 78.4902 48.6783 78.4902 38.8689C78.4902 17.4947 60.8441 0 39.279 0C17.6509 0 0 17.4947 0 38.8689Z" fill="black"/>
<path d="M7.5 39.1941C7.5 22.0732 21.6989 8 39.0275 8C56.2971 8 70.5 22.0732 70.5 39.1941C70.5 56.3655 56.2971 70.4427 39.0275 70.4427C21.6989 70.4427 7.5 56.3655 7.5 39.1941Z" fill="#589FF0"/>
<path d="M15.8356 41.7052L35.5394 41.7678C35.786 41.7678 35.8873 41.868 35.8873 42.1172L35.9504 61.5701C35.9504 63.1971 37.9172 63.3506 38.445 62.1025L57.2334 22.7712C58.0912 21.0566 56.7057 19.9918 55.1607 20.7215L15.3567 39.2326C13.9175 39.8809 14.3834 41.7052 15.8356 41.7052Z" fill="black"/>
</svg>
