<svg width="100" height="100" viewBox="0 0 100 100" fill="none" xmlns="http://www.w3.org/2000/svg">
<path fill-rule="evenodd" clip-rule="evenodd" d="M39.2789 77.7958C17.6509 77.7958 0 60.3058 0 38.8689C0 17.4947 17.6509 0 39.2789 0C60.844 0 78.4901 17.4947 78.4901 38.8689C78.4901 48.6783 74.7975 57.6798 68.7373 64.5022L99.109 94.61C99.6951 95.2629 100 96.0068 100 96.7648C100 98.478 98.8529 100 96.8086 100C95.9224 100 95.1039 99.582 94.625 99.0495L64.2439 68.8697C57.4379 74.4677 48.7637 77.7958 39.2789 77.7958ZM39.0275 8C21.6989 8 7.5 22.0732 7.5 39.1941C7.5 56.3655 21.6989 70.4427 39.0275 70.4427C56.2971 70.4427 70.5 56.3655 70.5 39.1941C70.5 22.0732 56.2971 8 39.0275 8Z" fill="black"/>
<path d="M15.8356 41.7052L35.5394 41.7678C35.786 41.7678 35.8873 41.8681 35.8873 42.1172L35.9504 61.5701C35.9504 63.1972 37.9172 63.3506 38.445 62.1025L57.2334 22.7712C58.0912 21.0566 56.7057 19.9918 55.1607 20.7215L15.3567 39.2327C13.9175 39.8809 14.3834 41.7052 15.8356 41.7052Z" fill="black"/>
</svg>
